<svg width="28" height="30" viewBox="0 0 28 30" fill="none" xmlns="http://www.w3.org/2000/svg">
<g id="communication / chat">
<g id="coolicon">
<path d="M2.3335 4.99976V22.4998L7.9335 17.9998C8.33695 17.6743 8.82848 17.4988 9.3335 17.4998H18.6668C19.9555 17.4998 21.0002 16.3805 21.0002 14.9998V4.99976C21.0002 3.61904 19.9555 2.49976 18.6668 2.49976H4.66683C3.37816 2.49976 2.3335 3.61904 2.3335 4.99976ZM4.66683 17.4998V4.99976H18.6668V14.9998H8.5565C8.05141 14.9983 7.55975 15.1739 7.1565 15.4998L4.66683 17.4998Z" fill="#686868"/>
<path d="M25.6668 27.4998V11.2498C25.6668 9.86904 24.6222 8.74976 23.3335 8.74976V22.4998L20.8438 20.4998C20.4406 20.1739 19.9489 19.9983 19.4438 19.9998H8.16683C8.16683 21.3805 9.2115 22.4998 10.5002 22.4998H18.6668C19.1718 22.4988 19.6634 22.6743 20.0668 22.9998L25.6668 27.4998Z" fill="#686868"/>
</g>
</g>
</svg>
