<svg width="31" height="30" viewBox="0 0 31 30" fill="none" xmlns="http://www.w3.org/2000/svg">
<g id="iconoir:message">
<path id="Vector" d="M4.25 25.3625V6.25C4.25 5.58696 4.51339 4.95107 4.98223 4.48223C5.45107 4.01339 6.08696 3.75 6.75 3.75H24.25C24.913 3.75 25.5489 4.01339 26.0178 4.48223C26.4866 4.95107 26.75 5.58696 26.75 6.25V18.75C26.75 19.413 26.4866 20.0489 26.0178 20.5178C25.5489 20.9866 24.913 21.25 24.25 21.25H10.4512C10.0765 21.25 9.70664 21.3343 9.36889 21.4966C9.03114 21.6589 8.73419 21.895 8.5 22.1875L5.58625 25.83C5.48928 25.9515 5.35695 26.0399 5.20755 26.0829C5.05815 26.126 4.89907 26.1215 4.75233 26.0702C4.60558 26.0188 4.47841 25.9231 4.38842 25.7964C4.29843 25.6696 4.25006 25.518 4.25 25.3625Z" stroke="#686868" stroke-width="2"/>
</g>
</svg>
