<svg width="133" height="133" viewBox="0 0 133 133" fill="none" xmlns="http://www.w3.org/2000/svg">
<g id="mingcute:pic-fill" clip-path="url(#clip0_976_8168)">
<g id="Group">
<path id="Vector" d="M110.5 17C113.417 17 116.215 18.1589 118.278 20.2218C120.341 22.2847 121.5 25.0826 121.5 28V105C121.5 107.917 120.341 110.715 118.278 112.778C116.215 114.841 113.417 116 110.5 116H22.5C19.5826 116 16.7847 114.841 14.7218 112.778C12.6589 110.715 11.5 107.917 11.5 105V28C11.5 25.0826 12.6589 22.2847 14.7218 20.2218C16.7847 18.1589 19.5826 17 22.5 17H110.5ZM110.5 28H22.5V83.55L49.9725 56.083C50.6109 55.4444 51.3689 54.9378 52.2031 54.5922C53.0374 54.2466 53.9315 54.0687 54.8345 54.0687C55.7375 54.0687 56.6316 54.2466 57.4659 54.5922C58.3001 54.9378 59.0581 55.4444 59.6965 56.083L82.054 78.446L88.863 71.637C89.5014 70.9984 90.2594 70.4918 91.0936 70.1462C91.9279 69.8006 92.822 69.6227 93.725 69.6227C94.628 69.6227 95.5221 69.8006 96.3564 70.1462C97.1906 70.4918 97.9486 70.9984 98.587 71.637L110.5 83.5555V28ZM85.75 39C87.938 39 90.0364 39.8692 91.5836 41.4164C93.1308 42.9635 94 45.062 94 47.25C94 49.438 93.1308 51.5365 91.5836 53.0836C90.0364 54.6308 87.938 55.5 85.75 55.5C83.562 55.5 81.4635 54.6308 79.9164 53.0836C78.3692 51.5365 77.5 49.438 77.5 47.25C77.5 45.062 78.3692 42.9635 79.9164 41.4164C81.4635 39.8692 83.562 39 85.75 39Z" fill="black"/>
</g>
</g>
<defs>
<clipPath id="clip0_976_8168">
<rect width="132" height="132" fill="white" transform="translate(0.5 0.5)"/>
</clipPath>
</defs>
</svg>
