<svg width="30" height="30" viewBox="0 0 30 30" fill="none" xmlns="http://www.w3.org/2000/svg">
<g id="COCO/Line/Question">
<path id="Vector" d="M11.188 25.8087C7.71626 24.9943 5.00547 22.2835 4.1911 18.8117C3.60297 16.3044 3.60297 13.6951 4.1911 11.1878C5.00546 7.71601 7.71626 5.00522 11.188 4.19085C13.6953 3.60272 16.3047 3.60272 18.812 4.19085C22.2837 5.00522 24.9945 7.71601 25.8089 11.1878C26.397 13.6951 26.397 16.3044 25.8089 18.8117C24.9945 22.2835 22.2837 24.9943 18.812 25.8087C16.3047 26.3968 13.6953 26.3968 11.188 25.8087Z" stroke="black" stroke-width="2"/>
<circle id="Vector_2" cx="15" cy="19.3748" r="1.25" fill="black"/>
<path id="Vector_3" d="M12.5 12.4998V11.8748C12.5 10.494 13.6193 9.37476 15 9.37476V9.37476V9.37476C16.3807 9.37476 17.5 10.494 17.5 11.8748V12.0264C17.5 12.7297 17.2206 13.4041 16.7233 13.9014L15 15.6248" stroke="black" stroke-width="1.5" stroke-linecap="round" stroke-linejoin="round"/>
</g>
</svg>
