<svg width="21" height="20" viewBox="0 0 21 20" fill="none" xmlns="http://www.w3.org/2000/svg">
<mask id="mask0_1184_684" style="mask-type:luminance" maskUnits="userSpaceOnUse" x="1" y="0" width="19" height="20">
<path d="M10.4998 18.3332C11.5944 18.3346 12.6784 18.1197 13.6897 17.7008C14.7009 17.2819 15.6194 16.6673 16.3923 15.8923C17.1673 15.1194 17.7819 14.2009 18.2008 13.1897C18.6197 12.1784 18.8346 11.0944 18.8332 9.99984C18.8346 8.90529 18.6197 7.82125 18.2008 6.81002C17.7819 5.79879 17.1673 4.88031 16.3923 4.10734C15.6194 3.33236 14.7009 2.71776 13.6897 2.29888C12.6784 1.88 11.5944 1.66509 10.4998 1.66651C9.40529 1.66512 8.32125 1.88003 7.31002 2.29891C6.29879 2.71779 5.38031 3.33237 4.60734 4.10734C3.83237 4.88031 3.21779 5.79879 2.79891 6.81002C2.38003 7.82125 2.16512 8.90529 2.16651 9.99984C2.16509 11.0944 2.38 12.1784 2.79888 13.1897C3.21776 14.2009 3.83236 15.1194 4.60734 15.8923C5.38031 16.6673 6.29879 17.2819 7.31002 17.7008C8.32125 18.1197 9.40529 18.3346 10.4998 18.3332Z" fill="white" stroke="white" stroke-width="1.66667" stroke-linejoin="round"/>
<path d="M7.1665 10L9.6665 12.5L14.6665 7.5" stroke="black" stroke-width="1.66667" stroke-linecap="round" stroke-linejoin="round"/>
</mask>
<g mask="url(#mask0_1184_684)">
<path d="M0.5 0H20.5V20H0.5V0Z" fill="#6DFF85"/>
</g>
</svg>
