<svg width="132" height="132" viewBox="0 0 132 132" fill="none" xmlns="http://www.w3.org/2000/svg">
<g id="mingcute:pic-fill" clip-path="url(#clip0_1198_2063)">
<g id="Group">
<path id="Vector" d="M110 16.5C112.917 16.5 115.715 17.6589 117.778 19.7218C119.841 21.7847 121 24.5826 121 27.5V104.5C121 107.417 119.841 110.215 117.778 112.278C115.715 114.341 112.917 115.5 110 115.5H22C19.0826 115.5 16.2847 114.341 14.2218 112.278C12.1589 110.215 11 107.417 11 104.5V27.5C11 24.5826 12.1589 21.7847 14.2218 19.7218C16.2847 17.6589 19.0826 16.5 22 16.5H110ZM110 27.5H22V83.05L49.4725 55.583C50.1109 54.9444 50.8689 54.4378 51.7031 54.0922C52.5374 53.7466 53.4315 53.5687 54.3345 53.5687C55.2375 53.5687 56.1316 53.7466 56.9659 54.0922C57.8001 54.4378 58.5581 54.9444 59.1965 55.583L81.554 77.946L88.363 71.137C89.0014 70.4984 89.7594 69.9918 90.5936 69.6462C91.4279 69.3006 92.322 69.1227 93.225 69.1227C94.128 69.1227 95.0221 69.3006 95.8564 69.6462C96.6906 69.9918 97.4486 70.4984 98.087 71.137L110 83.0555V27.5ZM85.25 38.5C87.438 38.5 89.5364 39.3692 91.0836 40.9164C92.6308 42.4635 93.5 44.562 93.5 46.75C93.5 48.938 92.6308 51.0365 91.0836 52.5836C89.5364 54.1308 87.438 55 85.25 55C83.062 55 80.9635 54.1308 79.4164 52.5836C77.8692 51.0365 77 48.938 77 46.75C77 44.562 77.8692 42.4635 79.4164 40.9164C80.9635 39.3692 83.062 38.5 85.25 38.5Z" fill="black"/>
</g>
</g>
<defs>
<clipPath id="clip0_1198_2063">
<rect width="132" height="132" fill="white"/>
</clipPath>
</defs>
</svg>
