<svg width="60" height="60" viewBox="0 0 60 60" fill="none" xmlns="http://www.w3.org/2000/svg">
<g id="uim:box">
<path id="Vector" d="M50.575 18.0999L30 29.9999L9.42499 18.0999C9.84736 17.3686 10.4498 16.7576 11.175 16.3249L27.5 6.8999C29.05 6.0249 30.95 6.0249 32.5 6.8999L48.825 16.3249C49.55 16.7574 50.1525 17.3699 50.575 18.0999Z" fill="#B5DBFF"/>
<path id="Vector_2" d="M30 30.0001V53.7501C29.2118 53.7489 28.434 53.5695 27.725 53.2251L11.25 43.7001C10.4912 43.2611 9.86088 42.6306 9.42215 41.8716C8.98343 41.1126 8.75166 40.2518 8.75 39.3751V20.6251C8.75413 19.7394 8.98661 18.8697 9.425 18.1001L30 30.0001Z" fill="#3DA1FF"/>
<path id="Vector_3" d="M51.25 20.6251V39.3751C51.2483 40.2518 51.0166 41.1126 50.5778 41.8716C50.1391 42.6306 49.5088 43.2611 48.75 43.7001L32.2 53.2501C31.5125 53.5751 30.76 53.7451 30 53.7501V30.0001L50.575 18.1001C51.0125 18.8701 51.245 19.7401 51.25 20.6251Z" fill="#116FC7"/>
</g>
</svg>
