<svg width="40" height="40" viewBox="0 0 40 40" fill="none" xmlns="http://www.w3.org/2000/svg">
<circle cx="20" cy="20" r="20" fill="white"/>
<circle cx="20" cy="20" r="19.5" stroke="#7B7C82" stroke-opacity="0.2"/>
<path d="M24.9152 17.1457C24.359 16.943 23.771 16.8413 23.179 16.8453C21.2645 16.8453 19.9123 17.8098 19.9028 19.1942C19.8908 20.2113 20.8636 20.7845 21.5995 21.1243C22.3546 21.4737 22.607 21.6939 22.6046 22.0062C22.5998 22.4812 22.0016 22.6966 21.4451 22.6966C20.6805 22.6966 20.2629 22.5901 19.6204 22.3233L19.3822 22.212L19.1106 23.8058C19.5761 23.9997 20.4149 24.166 21.2812 24.1804C23.3166 24.1804 24.6472 23.2219 24.6628 21.7489C24.6795 20.9364 24.153 20.3226 23.045 19.8152C22.3713 19.4862 21.9537 19.266 21.9537 18.9322C21.9537 18.6366 22.3115 18.3207 23.0593 18.3207C23.5571 18.3087 24.0517 18.4021 24.5108 18.5947L24.6903 18.6749L24.9619 17.1349L24.9152 17.1457ZM29.8834 16.9746H28.3877C27.9222 16.9746 27.5716 17.1026 27.3682 17.5645L24.4916 24.0811H26.527L26.9339 23.0125L29.418 23.0149C29.4766 23.265 29.6561 24.0811 29.6561 24.0811H31.451L29.8834 16.9746ZM17.1494 16.9147H19.0891L17.8757 24.0248H15.9385L17.1494 16.9123V16.9147ZM12.2255 20.8335L12.4265 21.8207L14.3219 16.9746H16.3764L13.324 24.0715H11.2742L9.59899 18.0623C9.57186 17.9632 9.50814 17.8781 9.4207 17.8241C8.81691 17.5122 8.17715 17.2755 7.51575 17.1193L7.54207 16.9698H10.664C11.0875 16.9865 11.4286 17.1193 11.5422 17.5717L12.2243 20.8371L12.2255 20.8335ZM27.4903 21.5587L28.2633 19.5699C28.2537 19.5915 28.4224 19.1595 28.5205 18.8927L28.6534 19.5065L29.1021 21.5575H27.4891L27.4903 21.5587Z" fill="#116FC7"/>
</svg>
