<svg width="92" height="92" viewBox="0 0 92 92" fill="none" xmlns="http://www.w3.org/2000/svg">
<g id="pic/logo" clip-path="url(#clip0_568_872)">
<g id="Group">
<path id="Vector" d="M76.6665 11.5C78.6998 11.5 80.6499 12.3077 82.0877 13.7455C83.5254 15.1833 84.3332 17.1333 84.3332 19.1667V72.8333C84.3332 74.8667 83.5254 76.8167 82.0877 78.2545C80.6499 79.6923 78.6998 80.5 76.6665 80.5H15.3332C13.2998 80.5 11.3498 79.6923 9.91202 78.2545C8.47424 76.8167 7.6665 74.8667 7.6665 72.8333V19.1667C7.6665 17.1333 8.47424 15.1833 9.91202 13.7455C11.3498 12.3077 13.2998 11.5 15.3332 11.5H76.6665ZM76.6665 19.1667H15.3332V57.8833L34.4807 38.7397C34.9256 38.2946 35.4539 37.9415 36.0354 37.7006C36.6168 37.4598 37.24 37.3358 37.8693 37.3358C38.4987 37.3358 39.1219 37.4598 39.7033 37.7006C40.2848 37.9415 40.813 38.2946 41.258 38.7397L56.8405 54.326L61.5862 49.5803C62.0311 49.1353 62.5594 48.7822 63.1409 48.5413C63.7223 48.3004 64.3455 48.1764 64.9748 48.1764C65.6042 48.1764 66.2274 48.3004 66.8088 48.5413C67.3903 48.7822 67.9185 49.1353 68.3635 49.5803L76.6665 57.8872V19.1667ZM59.4165 26.8333C60.9415 26.8333 62.404 27.4391 63.4824 28.5175C64.5607 29.5958 65.1665 31.0583 65.1665 32.5833C65.1665 34.1083 64.5607 35.5709 63.4824 36.6492C62.404 37.7275 60.9415 38.3333 59.4165 38.3333C57.8915 38.3333 56.429 37.7275 55.3506 36.6492C54.2723 35.5709 53.6665 34.1083 53.6665 32.5833C53.6665 31.0583 54.2723 29.5958 55.3506 28.5175C56.429 27.4391 57.8915 26.8333 59.4165 26.8333Z" fill="white"/>
</g>
</g>
<defs>
<clipPath id="clip0_568_872">
<rect width="92" height="92" fill="white"/>
</clipPath>
</defs>
</svg>
